<svg width="546" height="735" viewBox="0 0 546 735" fill="none" xmlns="http://www.w3.org/2000/svg">
<path fill-rule="evenodd" clip-rule="evenodd" d="M86.8189 0.0906314C78.5813 0.993864 69.4284 2.89064 63.2923 4.96521C53.45 8.29426 41.6954 13.6241 38.2905 16.3037C32.0148 21.2406 20.9683 31.9331 19.823 34.179C16.8725 39.9626 10.5638 57.4688 9.60333 62.5369C8.51126 68.3047 5.60675 85.3579 4.01718 95.3386C3.38739 99.2899 3.16883 107.651 3.31333 122.221C3.47581 138.646 3.2702 145.036 2.39382 150.842C1.03286 159.853 0.950181 166.621 2.16375 169.735C3.25294 172.531 2.63106 245.117 1.38873 260.214C0.0946413 275.934 -0.456072 316.27 0.439727 329.749C0.88475 336.451 1.58356 351.129 1.99191 362.366C2.39955 373.602 3.07897 386.494 3.50027 391.014C4.49456 401.674 4.99997 570.169 4.09195 588.174C3.72457 595.468 3.08399 608.048 2.66844 616.131C2.2529 624.213 1.71872 639.239 1.48075 649.522L1.04796 668.217L2.91935 672.294C3.94887 674.536 5.12867 678.22 5.5399 680.48C8.19494 695.055 26.8672 716.118 42.8888 722.609C45.1923 723.542 48.173 724.946 49.5131 725.729C50.8539 726.512 55.5091 728.12 59.8586 729.302C66.6634 731.152 68.7951 731.425 75.1339 731.253C81.1874 731.089 82.772 730.81 84.0229 729.686C86.2897 727.651 86.908 725.409 86.1438 722.001C85.7735 720.35 84.7828 715.128 83.9417 710.397C82.5534 702.591 82.4836 700.898 83.1817 692.117C83.6052 686.794 84.2558 679.859 84.6268 676.705C85.2775 671.172 84.9568 661.477 83.1925 633.335C82.2018 617.527 81.828 462.598 82.6814 421.147C83.2062 395.671 83.1602 376.897 82.511 350.896C81.3161 303.055 81.2629 275.875 82.3384 263.799C85.1977 231.703 85.3968 225.076 85.5154 158.019C85.5801 121.524 85.381 91.259 85.0733 90.7622C84.7649 90.2655 84.3917 76.737 84.2436 60.6989C84.0955 44.6608 83.9668 31.3095 83.9582 31.0292C83.9503 30.7489 83.2349 29.8614 82.3693 29.0579C81.1392 27.9152 79.8458 27.5998 76.4381 27.6134C71.8965 27.6313 71.476 27.7116 60.0182 30.7532C52.9345 32.6342 42.474 37.3898 36.4931 41.4479C34.7137 42.6551 31.2528 45.5511 28.8026 47.8831L24.3481 52.1233L26.8823 45.7734C28.2771 42.2816 29.5819 39.0379 29.7825 38.5654C29.9831 38.0938 31.196 36.9095 32.4778 35.9353C33.7597 34.9604 37.3983 31.7919 40.563 28.8944C45.3555 24.5073 47.5109 23.1223 53.4479 20.6141C63.4131 16.404 71.9922 13.5137 77.4726 12.5194C85.8461 11.0011 280.904 10.5502 306.814 11.9896C314.525 12.4176 342.348 12.8384 368.643 12.923C414.524 13.0721 421.398 13.3509 427.956 15.3259C441.49 19.4033 456.367 27.2234 464.197 34.3776C468.512 38.3196 474.713 46.7928 477.23 52.1835C480.137 58.4122 481.385 63.7391 482.553 74.9083C483.554 84.479 484.778 114.962 484.135 114.313C483.952 114.128 483.41 109.461 482.931 103.941C481.589 88.4877 477.947 71.6273 474.425 64.5621C467.389 50.4473 461.107 43.0164 452.759 38.9318C450.98 38.0608 447.699 36.1776 445.47 34.7461C439.319 30.7984 432.58 29.2485 415.582 27.8722C408.498 27.2994 406.651 28.1618 404.479 33.0543C402.914 36.5841 402.914 37.0472 404.522 68.4567C405.141 80.56 405.143 91.3852 404.53 111.826C404.08 126.808 403.667 143.246 403.612 148.353C403.492 159.452 404.593 158.603 390.199 158.708C384.854 158.748 375.472 159.088 369.35 159.465C363.227 159.842 348.029 160.245 335.575 160.361L312.932 160.572L312.446 156.629C312.178 154.461 312.255 149.3 312.617 145.16C314.805 120.118 315.798 37.7654 313.966 33.2729C313.203 31.402 308.68 27.2485 305.376 25.3847C303.865 24.5316 295.159 24.3933 250.737 24.5137C198.733 24.6542 182.669 25.1933 171.294 27.179C164.16 28.4242 154.045 28.5589 144.949 27.5303C134.435 26.3403 124.529 28.2313 123.148 31.6916C122.534 33.2271 121.671 71.5578 121.73 94.6218C121.753 103.69 122.065 189.82 122.424 286.021C122.782 382.222 122.93 478.191 122.75 499.284C122.571 520.377 122.495 549.41 122.582 563.801C122.669 578.191 122.739 594.804 122.738 600.718C122.736 606.632 123.216 621.31 123.803 633.335C124.565 648.94 124.724 661.15 124.358 675.988C124.075 687.422 123.844 704.092 123.844 713.033C123.844 728.402 123.926 729.401 125.348 731.313C126.174 732.425 128.151 733.795 129.742 734.355C132.392 735.289 132.87 735.255 135.428 733.946C138.117 732.572 139.838 732.511 180.64 732.372C203.97 732.293 228.72 731.907 235.639 731.514C260.85 730.084 298.49 729.565 362.532 729.764C430.779 729.976 435.988 729.798 449.148 726.811C458.043 724.792 473.679 713.807 478.071 706.492C478.913 705.091 480.687 702.591 482.014 700.935C483.342 699.28 485.62 695.423 487.077 692.365C489.206 687.895 489.766 685.814 489.938 681.754C490.241 674.595 491.47 657.254 492.304 648.389C492.694 644.249 493.206 627.339 493.444 610.81C493.682 594.281 494.092 580.176 494.356 579.466C494.788 578.302 496.225 578.132 508.846 577.756C524.459 577.29 531.092 576.562 535.41 574.839C538.739 573.511 544.35 567.674 545.14 564.716C545.432 563.621 545.775 536.437 545.9 504.306C546.15 440.065 546.295 442.609 541.644 429.494C538.772 421.397 537.416 419.671 531.619 416.742C526.008 413.907 522.462 413.39 505.688 412.963C497.828 412.763 491.32 412.507 491.227 412.393C491.133 412.28 490.876 405.977 490.657 398.387L490.257 384.588H499.843C511.905 384.588 524.476 382.91 533.247 380.13C541.37 377.555 543.603 375.594 544.736 370.044C545.251 367.515 545.403 346.383 545.205 304.659C544.931 247.218 544.663 238.789 542.929 233.084C542.006 230.048 538.78 226.699 535.162 225.018C531.547 223.34 531.112 223.31 510.094 223.304L488.706 223.296V220.517C488.706 218.988 489.16 216.649 489.714 215.319C491.624 210.741 493.022 191.74 493.021 170.394C493.02 156.185 493.369 147.167 494.186 140.287C495.153 132.149 495.276 126.037 494.905 104.658C494.316 70.6488 492.861 59.7261 487.372 48.1038C481.727 36.1496 474.557 27.6922 463.984 20.5159C455.208 14.5595 448.862 11.2828 438.832 7.52582C424.214 2.05122 425.367 2.15013 375.832 2.13149C348.194 2.12146 324.071 1.73865 311.487 1.11069C291.43 0.109251 264.406 -0.02119 159.35 0.375945C133.01 0.475588 106.481 0.390272 100.397 0.185969C94.3131 -0.0183331 88.2028 -0.0606241 86.8189 0.0906314ZM514.021 232.585C522.607 232.952 530.287 233.603 531.088 234.031C531.889 234.458 532.71 235.524 532.913 236.4C533.886 240.604 534.395 255.741 533.943 267.024C533.666 273.924 533.764 295.053 534.159 313.978C534.991 353.709 534.669 367.273 532.863 368.59C532.212 369.064 528.723 370.168 525.11 371.044C519.792 372.332 515.77 372.697 503.983 372.959L489.425 373.283L489.254 366.57C489.161 362.877 489.08 330.98 489.075 295.686L489.065 231.515L493.739 231.717C496.309 231.827 505.436 232.218 514.021 232.585ZM515.837 422.604C523.014 423.243 527.619 424.731 529.476 427.009C530.739 428.559 533.745 438.988 534.752 445.319C535.449 449.701 535.513 453.19 535.004 458.939C534.597 463.526 534.562 471.475 534.917 478.495C535.4 488.039 535.165 531.113 534.492 556.274C534.351 561.551 533.446 564.008 531.323 564.865C529.701 565.52 512.29 566.578 502.275 566.629L494.635 566.668L494.223 529.571C493.997 509.167 493.498 486.184 493.115 478.495C492.732 470.807 492.186 454.717 491.902 442.74L491.385 420.963L499.931 421.456C504.631 421.727 511.789 422.244 515.837 422.604Z" fill="black"/>
</svg>
