<svg width="698" height="698" viewBox="0 0 698 698" fill="none" xmlns="http://www.w3.org/2000/svg">
<path fill-rule="evenodd" clip-rule="evenodd" d="M329.575 0.523607C313.227 3.00635 307.874 3.96236 305.624 4.80136C304.162 5.34642 299.093 6.78855 294.36 8.00519C272.645 13.5909 252.078 23.6503 235.107 36.9886C216.926 51.2763 207.017 70.4686 200.943 103.15C197.786 120.137 197.759 151.003 200.881 173.982C203.891 196.131 211.399 226.269 218.209 243.532C219.935 247.907 222.68 255.34 224.309 260.049C227.18 268.345 236.686 286.533 242.208 294.293C243.697 296.386 247.328 301.951 250.277 306.659C258.975 320.547 267.316 332.828 272.987 340.095C275.905 343.835 282.211 352.396 287 359.12C291.788 365.843 297.114 372.877 298.834 374.751C300.554 376.626 305.951 382.94 310.827 388.782C315.703 394.626 320.1 399.406 320.598 399.406C322.156 399.406 345.049 421.596 346.849 424.852C348.275 427.428 349.137 427.943 352.023 427.943C354.774 427.943 356.072 427.254 358.346 424.588C359.918 422.743 365.498 417.032 370.745 411.898C378.932 403.887 393.346 386.748 415.931 358.175C418.968 354.332 425.454 346.734 430.343 341.29C445.772 324.112 467.119 291.503 483.839 259.573C490.995 245.905 495.509 230.281 500.324 202.498C502.055 192.512 502.377 186.496 502.333 164.924C502.301 148.839 501.713 134.264 500.761 125.923C495.921 83.5035 494.759 79.4854 481.796 60.3407C478.942 56.1257 475.3 50.5372 473.702 47.9212C468.928 40.1068 460.379 32.4997 447.059 24.2144C433.253 15.6284 429.122 13.9875 408.4 8.86411C385.191 3.12526 383.686 2.8028 373.255 1.33313C364.098 0.0432411 336.152 -0.475199 329.575 0.523607ZM373.996 67.4179C385.546 69.3185 394.344 72.6897 395.555 75.6785C395.855 76.4205 398.656 78.2497 401.78 79.7432C404.902 81.2366 411.164 85.2937 415.696 88.7591C423.091 94.4162 424.337 95.8591 427.895 102.881C432.844 112.653 434.599 118.621 436.054 130.629C438.112 147.623 436.039 160.046 427.555 181.557C423.27 192.42 417.908 200.067 406.376 211.762C399.094 219.148 396.48 221.105 390.005 224.015C377.207 229.768 352.313 233.69 339.485 231.974C327.709 230.398 310.58 224.92 303.576 220.489C297.399 216.581 286.924 206.308 280.589 197.946C272.961 187.876 266.879 173.115 264.719 159.43C263.409 151.131 263.42 148.822 264.817 138.488C266.818 123.679 268.319 119.408 275.404 108.352C289.133 86.9289 300.868 76.9941 321.542 69.2957C332.453 65.2319 355.658 64.4015 373.996 67.4179ZM44.8328 183.913C39.297 186.118 39.2067 186.534 34.9521 229.133C33.5674 242.998 31.9588 258.408 31.3764 263.378C30.794 268.348 29.8762 281.618 29.337 292.866C28.7978 304.115 27.6902 319.097 26.8779 326.16C26.0645 333.223 24.6648 346.065 23.7671 354.697C22.8694 363.33 21.2286 375.744 20.122 382.283C19.0155 388.823 17.7342 399.525 17.2743 406.064C16.8144 412.604 15.7551 423.734 14.9196 430.797C11.5548 459.26 9.77245 484.855 8.22809 526.872C7.24002 553.749 6.6536 560.683 4.2015 574.435C1.6741 588.611 -1.07922 638.035 0.429991 642.135C0.951137 643.553 2.8118 645.734 4.56402 646.984C9.31257 650.369 38.572 663.714 63.4796 673.857C66.5171 675.093 73.5209 678.109 79.0437 680.556C106.819 692.869 110.959 694.021 114.695 690.481C116.502 688.77 116.646 687.766 116.086 680.731C115.724 676.164 116.138 665.338 117.08 654.815C118.693 636.78 119.103 622.71 118.852 593.935C118.681 574.309 120.472 523.058 121.695 512.604C122.215 508.157 122.925 498.097 123.273 490.249C123.62 482.402 124.518 471.272 125.267 465.517C126.016 459.762 127.326 444.566 128.179 431.748C129.032 418.93 130.176 401.808 130.725 393.698C131.803 377.715 132.455 355.102 133.286 304.757C134.092 255.93 134.631 240.909 135.909 231.495C137.396 220.551 136.218 217.782 129.028 215.324C126.389 214.421 121.97 212.92 119.209 211.988C116.448 211.057 107.826 207.527 100.049 204.145C92.2732 200.763 84.1397 197.468 81.9748 196.822C79.8108 196.176 73.4898 193.551 67.9299 190.987C62.369 188.425 57.0863 186.327 56.1906 186.327C55.2939 186.327 54.3088 185.941 54.0015 185.469C52.7604 183.567 47.8101 182.726 44.8328 183.913ZM645.878 183.185C645.049 183.467 639.175 185.854 632.824 188.49C626.473 191.127 615.628 195.522 608.725 198.257C579.263 209.928 564.075 216.592 562.806 218.403C561.705 219.973 561.649 223.772 562.492 239.234C563.061 249.636 563.998 289.608 564.576 328.062C565.897 415.909 567.483 461.244 571.08 514.031C571.899 526.064 573.033 542.758 573.597 551.129C574.161 559.5 575.065 577.907 575.606 592.033C578.583 669.813 579.937 688.355 582.843 691.108C585.437 693.565 592.703 693.841 597.252 691.654C599.419 690.612 606.164 687.951 612.239 685.741C622.595 681.974 635.911 676.188 676.002 658.032C685.114 653.905 693.124 650.529 693.802 650.531C694.48 650.533 695.783 649.451 696.698 648.128C698.118 646.075 698.261 644.086 697.678 634.573C697.303 628.44 696.369 618.287 695.604 612.009C694.838 605.73 693.722 595.029 693.121 588.228C692.522 581.426 691.155 566.444 690.085 554.934C689.014 543.424 687.665 524.161 687.084 512.128C684.69 462.399 683.057 440.715 678.457 397.503C676.324 377.468 674.133 352.624 672.962 335.197C670.697 301.489 667.197 268.368 662.555 236.743C661.749 231.25 660.802 222.474 660.452 217.243C660.1 212.011 659.393 205.59 658.88 202.974C658.367 200.358 657.722 195.435 657.445 192.035C657.058 187.261 656.457 185.472 654.814 184.187C652.744 182.569 648.94 182.143 645.878 183.185ZM522.927 223.761C521.468 225.145 519.184 230.144 516.952 236.841C510.774 255.384 479.701 308.795 450.323 351.368C432.134 377.727 392.323 422.093 370.852 439.932L361.027 448.095L360.365 487.246C359.359 546.668 359.578 574.151 361.209 592.984C362.024 602.401 362.959 621.022 363.285 634.363C363.611 647.704 364.352 659.802 364.929 661.248C365.515 662.716 366.92 664.044 368.111 664.257C369.283 664.466 383.347 667.67 399.363 671.377C430.187 678.51 459.069 684.445 475.677 687.057C481.2 687.925 493.774 689.9 503.62 691.446C513.467 692.991 525.364 695.12 530.058 696.176C540.369 698.496 544.14 698.577 548.387 696.568C552.999 694.389 553.563 692.093 552.496 679.809C551.606 669.55 549.153 628.108 547.95 602.972C547.636 596.432 546.949 568.822 546.423 541.617C545.897 514.411 544.801 484.233 543.987 474.554C539.905 425.971 537.742 372.122 536.922 298.715C536.646 273.941 536.194 253.326 535.918 252.904C535.643 252.481 535.376 246.337 535.326 239.25C535.239 227.091 535.1 226.227 532.865 223.943C529.889 220.901 526.022 220.83 522.927 223.761ZM167.91 225.328C166.195 226.953 165.898 228.515 165.881 236.03C165.87 240.869 165.409 247.611 164.857 251.012C164.303 254.431 163.642 286.088 163.381 321.817C163.12 357.358 162.687 387.108 162.419 387.928C161.371 391.128 157.762 448.427 156.305 485.018C155.461 506.207 154.356 528.894 153.849 535.434C153.342 541.973 152.472 564.66 151.916 585.849C150.642 634.4 149.091 666.389 147.421 678.596C146.7 683.87 146.479 689.036 146.925 690.19C147.875 692.646 151.397 694.657 153.443 693.914C155.758 693.072 175.679 689.016 200.042 684.425C224.638 679.79 237.707 677.93 257.78 676.203C264.959 675.585 273.733 674.266 277.278 673.271C280.824 672.276 284.549 671.461 285.558 671.461C286.568 671.461 289.993 670.646 293.171 669.649C299.63 667.623 309.114 665.655 324.053 663.243C329.575 662.35 334.885 660.986 335.851 660.21C338.046 658.448 338.087 655.541 335.974 651.527C334.661 649.035 334.484 646.99 335.074 641.155C335.479 637.158 335.95 615.053 336.121 592.033C336.293 569.012 336.928 538.62 337.532 524.494C338.137 510.368 338.74 488.588 338.873 476.093L339.115 453.375L336.102 451.361C327.422 445.555 294.065 412.513 278.482 394.284C261.405 374.308 238.615 343.536 226.97 324.733C225.026 321.594 220.609 314.752 217.152 309.528C210.072 298.825 202.211 284.384 198.634 275.51C197.316 272.238 194.349 265.708 192.043 261C187.637 252.004 180.963 232.522 180.963 228.657C180.963 223.862 171.897 221.551 167.91 225.328Z" fill="black"/>
</svg>
