<svg width="696" height="696" viewBox="0 0 696 696" fill="none" xmlns="http://www.w3.org/2000/svg">
<path fill-rule="evenodd" clip-rule="evenodd" d="M383.635 0.982882C381.617 2.04465 358.414 2.08615 347.291 1.0484C340.844 0.447287 319.863 1.66914 313.742 3.00308C305.503 4.79841 298.745 9.67935 296.997 15.0974C295.816 18.7608 291.804 35.0432 291.044 39.2604C290.288 43.4616 287.691 50.9035 284.795 57.1693C281.825 63.5945 275.456 71.2008 267.718 77.5634C265.348 79.5115 261.607 82.6473 259.405 84.5314C257.203 86.4156 254.202 88.336 252.735 88.7981C251.269 89.2603 247.899 90.7208 245.246 92.0439C242.593 93.3669 238.311 94.8522 235.732 95.3441C233.152 95.8368 229.423 96.8622 227.446 97.6227C220.955 100.121 200.892 99.076 191.399 95.7458C189.746 95.1658 186.986 93.8079 185.266 92.7279C183.545 91.648 180.105 89.8578 177.621 88.7494C175.137 87.6411 171.906 85.6878 170.441 84.4092C168.029 82.3024 161.157 78.2387 152.365 73.7195C147.556 71.2481 139.38 71.0137 136.504 73.2661C135.366 74.1583 132.294 76.3619 129.678 78.1637C120.603 84.4143 87.5381 117.793 80.3161 127.994C75.3913 134.951 74.0557 138.153 74.0557 143.004C74.0557 148.296 74.9691 150.315 79.47 154.971C81.8054 157.386 83.8583 160.378 84.6472 162.517C85.456 164.712 86.684 166.48 87.8726 167.161C88.9272 167.765 90.6581 169.65 91.7185 171.349C94.9044 176.455 100.427 189.197 101.646 194.257C103.005 199.894 103.12 217.864 101.858 227.165C100.905 234.184 97.755 246.782 96.1624 249.94C93.6499 254.923 86.3525 264.766 82.3594 268.557C76.0047 274.592 73.9474 276.051 59.7653 284.583C57.1847 286.135 48.2201 288.239 42.9514 288.529C34.3051 289.005 19.2316 290.451 15.655 291.148C10.043 292.241 7.70763 294.897 3.90046 304.516C-0.148957 314.747 -0.375109 316.29 0.281375 329.263C0.5851 335.267 0.784895 349.677 0.725614 361.284C0.635594 379.022 0.825887 383.375 1.92222 388.574C3.52208 396.16 4.595 398.331 7.2385 399.332C8.36411 399.759 11.4262 400.919 14.0427 401.911C19.9583 404.155 25.1268 405.214 34.3234 406.07C50.9543 407.616 54.9891 408.863 65.0128 415.548C71.4378 419.833 81.3773 429.067 86.1161 435.154C89.6788 439.729 96.6228 451.914 99.0013 457.764C100.761 462.091 100.986 469.162 99.5868 476.169C99.1763 478.224 98.3793 484.326 97.8165 489.729C96.4091 503.23 95.0939 508.366 90.8074 517.116C88.147 522.545 86.2705 525.362 84.0647 527.236C82.3836 528.665 80.3292 530.948 79.4993 532.311C78.6701 533.673 77.1449 535.449 76.1115 536.258C73.1116 538.604 71.1275 543.623 71.1341 548.85C71.1421 555.802 72.4653 562.434 74.6463 566.461C77.09 570.972 105.332 599.448 117.283 609.451C128.51 618.847 130.334 619.849 138.003 620.833C146.217 621.888 149.546 620.75 155.338 614.908C160.336 609.867 167.356 606.378 187.498 598.925C212.872 589.535 224.565 588.662 237.252 595.208C250.086 601.832 250.701 602.243 254.741 606.895C257.001 609.497 261.588 614.573 264.936 618.175C269.372 622.948 271.78 626.303 273.819 630.546C281.125 645.755 282.7 650.411 284.104 660.971C285.467 671.212 288.348 678.293 293.528 684.134C297.164 688.233 302.847 691.968 306.786 692.848C312.511 694.127 349.958 695.979 370.461 695.998C390.697 696.016 391.421 695.967 394.728 694.36C398.361 692.594 400.928 688.773 400.239 686.155C400.04 685.395 400.309 683.343 400.838 681.594C401.368 679.845 402.172 675.831 402.624 672.674C404.412 660.21 409.148 644.257 413.835 634.913C416.838 628.926 422.453 620.968 426.233 617.344C436.934 607.083 446.342 601.336 462.677 595.081C469.645 592.412 471.01 592.134 477.314 592.088C483.254 592.045 485.599 592.425 493.415 594.699C516.208 601.331 520.536 603.694 533.668 616.668C543.597 626.478 545.753 627.486 552.666 625.543C554.897 624.916 558.38 624.085 560.406 623.696C567.031 622.424 571.005 620.2 576.521 614.683C579.403 611.8 583.677 607.805 586.018 605.803C588.36 603.802 592.496 599.381 595.21 595.979C597.924 592.577 603.329 586.702 607.22 582.923C612.58 577.719 615.331 574.313 618.561 568.88C624.044 559.658 624.975 556.044 623.322 550.391C621.369 543.711 618.913 539.189 609.267 524.512C600.134 510.619 596.386 498.562 595.401 479.905C594.859 469.626 596.554 462.538 601.93 452.615C610.07 437.586 616.495 428.971 621.48 426.4C622.895 425.67 625.997 423.426 628.373 421.412C630.749 419.398 633.713 417.531 634.959 417.264C637.536 416.71 642.674 414.253 648.571 410.755C651.868 408.8 653.655 408.281 658.451 407.887C661.671 407.622 665.487 407.436 666.932 407.473C671.686 407.595 684.507 403.947 688.524 401.329C692.616 398.663 695.049 394.707 694.465 391.668C694.269 390.652 694.604 388.642 695.209 387.203C696.016 385.281 696.179 383.329 695.819 379.848C695.383 375.623 694.366 348.237 694.508 344.546C694.539 343.745 694.776 339.652 695.034 335.449C695.292 331.247 695.224 321.63 694.884 314.08L694.265 300.351L692.142 298.536C690.375 297.024 689.483 296.78 686.816 297.079C684.129 297.38 682.267 296.857 675.263 293.837C668.854 291.072 665.592 290.1 661.219 289.654C658.086 289.334 651.571 287.85 646.741 286.355C641.911 284.861 636.312 283.156 634.299 282.565C624.769 279.77 613.196 270.35 607.425 260.693C603.748 254.537 598.889 244.441 596.894 238.805C595.304 234.318 594.372 217.099 595.232 208.095C596.078 199.237 598.562 187.404 600.278 184.06C601.013 182.628 603.051 179.837 604.807 177.856C614.639 166.773 625.023 151.215 626.757 144.97C627.877 140.936 625.81 134.296 621.992 129.668C620.308 127.626 617.49 124.215 615.73 122.088C613.97 119.961 608.551 114.714 603.687 110.429C598.519 105.877 594.263 101.492 593.444 99.8772C591.47 95.986 590.138 94.6543 586.265 92.7017C584.401 91.7615 581.273 89.2326 579.313 87.0822C576.147 83.6079 566.854 76.9688 560.801 73.8556C558.079 72.4561 555.323 72.4299 552.809 73.7791C551.74 74.3526 549.055 75.6552 546.841 76.6733C544.617 77.6958 539.997 81.0558 536.515 84.1814C533.05 87.2925 527.021 91.76 523.117 94.1084C517.067 97.7486 514.746 98.6823 507.397 100.43C502.656 101.558 494.14 103.061 488.476 103.77C478.608 105.006 477.833 105.005 470 103.763C464.749 102.931 459.817 101.611 456.213 100.075C446.852 96.0843 436.139 90.4931 432.912 87.9118C428.2 84.1428 423.433 77.8952 421.645 73.1423C420.752 70.7707 418.834 66.9377 417.381 64.6249C407.525 48.9357 406.273 45.1929 405.849 30.1637C405.396 14.1113 404.753 12.1085 398.266 6.55661C390.543 -0.0519623 387.679 -1.14356 383.635 0.982882ZM348.871 230.371C361.393 231.398 388.451 237.839 400.128 242.572C406.933 245.329 416.494 251.5 418.67 254.537C419.494 255.689 421.971 258.014 424.174 259.704C428.39 262.938 432.94 268.416 435.427 273.253C436.243 274.84 438.253 277.652 439.892 279.501C443.384 283.439 449.758 294.214 453.187 301.973C455.974 308.281 460.719 324.843 462.464 334.358C463.277 338.793 463.682 345.253 463.72 354.37C463.77 366.696 463.6 368.571 461.711 376.566C459.028 387.926 456.59 395.421 453.482 401.871C452.099 404.742 450.967 407.475 450.967 407.945C450.967 408.892 446.17 413.317 445.143 413.317C443.321 413.317 440.081 417.172 439.619 419.888C437.994 429.452 418.298 444.921 396.443 453.798C387.18 457.561 369.924 460.09 353.263 460.129C343.408 460.151 339.872 459.835 330.941 458.13C309.138 453.968 290.777 447.178 278.978 438.914C272.038 434.052 258.4 420.563 252.297 412.524C245.713 403.85 236.054 384.836 235.035 378.542C234.659 376.221 233.489 371.879 232.435 368.894C231.381 365.909 230.341 361.543 230.121 359.191C229.466 352.149 233.294 316.621 235.307 311.07C237.87 304.002 244.482 290.815 248.91 283.942C251.56 279.828 254.802 274.761 256.115 272.682C259.156 267.864 263.971 262.934 267.317 261.214C268.753 260.475 270.385 259.324 270.943 258.654C272.271 257.064 282.537 250.426 290.115 246.258C293.408 244.446 297.488 241.836 299.181 240.457C302.972 237.368 304.74 236.682 311.415 235.709C315.954 235.048 319.633 234.137 334.6 229.97C336.009 229.577 338.644 229.413 340.455 229.604C342.266 229.794 346.054 230.139 348.871 230.371Z" fill="black"/>
</svg>
