<svg width="336" height="93" viewBox="0 0 336 93" fill="none" xmlns="http://www.w3.org/2000/svg">
<path d="M7.48576 45.9718C6.09869 46.0411 5.82128 47.0814 5.82128 48.2605C5.82128 49.162 6.02934 50.133 6.02934 50.9652V51.2427C5.75193 55.6813 5.82128 60.0505 5.61322 64.4198V65.1827C5.61322 67.1246 5.95999 69.0665 6.02934 70.939V71.6326C6.02934 73.5745 5.68257 75.5857 5.47451 77.4583C5.26645 79.6082 5.12775 81.8969 5.05839 84.1162V84.8791C5.05839 87.1678 5.61322 88 8.1793 88.4161C8.66477 88.4855 9.2196 88.5548 9.84378 88.5548C11.2309 88.5548 12.6179 88.2081 12.9647 86.6129C13.034 86.1275 13.1034 85.5033 13.1034 84.8791C13.1034 83.284 12.7566 81.4114 12.7566 79.8856C12.7566 77.805 12.7566 75.447 12.6179 73.3664V71.9793C12.6179 70.3149 12.9647 68.9971 15.1146 68.5117C15.8082 68.373 16.5017 68.3036 17.1953 68.3036C18.513 68.3036 19.692 68.5117 21.0097 68.5117C21.9113 68.5117 23.5758 68.8584 25.0322 68.8584C25.9338 68.8584 26.766 68.6504 27.1128 68.1649C27.2515 67.9568 27.3209 67.1246 27.3209 66.0843C27.3209 64.4892 27.1822 62.5473 26.766 62.2699C26.4886 62.2005 26.2112 62.1311 25.7951 62.1311C25.0322 62.1311 23.9919 62.3392 23.5064 62.4086C23.229 62.4086 22.9516 62.4779 22.6048 62.4779C21.7726 62.4779 21.0097 62.4086 20.3162 62.2699C19.6226 62.2005 19.1372 62.1311 18.513 62.1311C18.1662 62.1311 17.7501 62.2005 17.2646 62.2699C16.8485 62.3392 16.0162 62.5473 15.2534 62.5473C15.0453 62.5473 14.6985 62.5473 14.5598 62.4086C12.826 61.5763 12.6873 59.0102 12.6179 57.4151V56.9296C12.6179 55.1264 13.3115 52.9765 15.184 52.5604C15.6001 52.5604 16.0856 52.491 16.4324 52.491C18.0275 52.491 20.2468 52.9071 21.2178 52.9071H23.6451C24.2693 52.9071 25.3096 53.1845 26.1419 53.1845C26.4193 53.1845 26.6273 53.1152 26.8354 53.0458C27.5983 52.7684 27.737 52.283 27.737 51.6588V50.7572C27.737 50.133 27.8757 49.3008 27.8757 48.5379C27.8757 48.2605 27.8757 47.983 27.8063 47.7056C27.3902 46.4573 26.0725 46.1798 24.6854 46.1798C23.8532 46.1798 22.9516 46.3186 22.2581 46.3186C20.1775 46.3186 18.0275 46.0411 15.9469 46.0411C15.3921 46.0411 14.9066 46.1105 14.3518 46.1105C13.3115 46.1798 12.2712 46.3879 11.3002 46.3879H11.0228C9.84378 46.3879 8.80348 45.9718 7.76318 45.9718H7.48576ZM80.3817 66.8472C80.3817 58.5248 75.0415 50.133 67.0658 47.2202C63.7369 45.9718 60.4772 45.2782 57.1483 45.2782C55.5532 45.2782 53.8887 45.4863 52.1548 45.8331C50.0049 46.3186 47.9243 47.2202 45.8437 48.1911C42.2373 49.9943 39.1857 53.7394 37.6599 57.4151C36.2729 60.6747 35.4406 63.865 35.4406 67.2633C35.4406 68.2343 35.51 69.2052 35.6487 70.2455C36.3422 74.6841 37.7987 78.0825 40.5728 81.6888C44.8034 87.0984 51.6694 89.4564 58.3966 89.4564C60.824 89.4564 63.182 89.179 65.332 88.6242C69.4932 87.5839 73.7238 84.0469 76.2898 80.6485C79.2027 76.6954 80.3817 71.6326 80.3817 67.6101V66.8472ZM48.2017 56.3055C49.7275 54.7103 51.4613 53.67 53.5419 53.1152C54.929 52.7684 56.6628 52.5604 58.2579 52.5604C58.7434 52.5604 59.1595 52.6297 59.645 52.6297C60.824 52.6297 62.4191 53.0458 63.5982 53.462C64.9159 53.8781 65.9562 54.641 66.9965 55.5426C69.3545 57.5538 70.9496 60.328 72.2673 63.1715C72.6835 64.2811 72.8915 65.4601 72.8915 66.7778C72.8915 69.8294 71.7125 73.0196 70.1867 75.3777C68.0368 78.4986 64.0836 81.8275 60.3385 82.3824C59.645 82.5211 58.9515 82.5904 58.2579 82.5904C54.3741 82.5904 51.1145 80.9953 47.7162 78.5679C43.9711 75.8631 43.1389 71.3552 43.1389 67.1246C43.1389 64.8359 43.1389 62.686 44.1792 60.7441C45.1501 58.8715 46.7453 57.6925 48.2017 56.3055ZM101.746 45.1395C99.5265 45.3476 96.9604 45.2782 94.8798 46.1105C90.6493 47.8443 87.7364 52.5604 87.7364 57.0683V57.2764C88.0832 66.8472 98.6943 67.6101 104.589 72.3261C106.393 73.7132 107.641 76.0712 107.641 78.2212C107.641 79.7469 106.947 81.2727 105.283 82.105C103.757 82.9372 101.954 83.4227 100.081 83.4227C98.0007 83.4227 95.9201 82.7291 94.5331 81.134C93.7008 80.1631 93.2847 78.1518 92.2444 77.4583C91.6896 77.0421 90.1638 76.9034 88.9154 76.9034C88.3606 76.9034 87.8751 76.9728 87.5284 76.9728C86.0026 77.1809 85.3784 77.8744 85.3784 78.9147C85.3784 81.7582 90.5106 87.0291 92.175 87.8613C94.6024 89.0403 98.2781 89.6645 101.538 89.6645C102.925 89.6645 104.173 89.5951 105.283 89.3177C109.583 88.4161 113.675 85.0872 114.507 80.6485C114.784 79.6082 114.854 78.5679 114.854 77.5276C114.854 75.1003 114.16 72.7422 112.912 70.4536C110.415 66.0149 106.115 64.1424 101.676 62.2699L100.497 61.715C98.833 61.0215 96.683 60.1893 95.7121 58.7328C95.2266 58.1086 95.0185 57.3458 95.0185 56.6522C95.0185 55.1264 95.9201 53.6007 97.3072 52.8378C98.4169 52.2136 99.8733 51.7975 101.26 51.7975C101.746 51.7975 102.301 51.8668 102.717 51.9362C103.965 52.283 105.144 53.1845 106.046 54.2249C106.809 55.0571 106.947 56.1667 108.126 56.1667H108.404C109.86 56.028 111.663 54.2942 112.357 53.1152C112.634 52.6297 112.704 52.2136 112.704 51.7975C112.704 50.4798 111.663 49.4395 110.623 48.5379C108.889 46.9427 107.78 46.3879 105.699 45.6944C104.589 45.3476 103.688 45.1395 102.578 45.1395H101.746ZM134.458 45.1395C132.239 45.3476 129.673 45.2782 127.592 46.1105C123.362 47.8443 120.449 52.5604 120.449 57.0683V57.2764C120.796 66.8472 131.407 67.6101 137.302 72.3261C139.105 73.7132 140.353 76.0712 140.353 78.2212C140.353 79.7469 139.66 81.2727 137.995 82.105C136.47 82.9372 134.667 83.4227 132.794 83.4227C130.713 83.4227 128.633 82.7291 127.246 81.134C126.413 80.1631 125.997 78.1518 124.957 77.4583C124.402 77.0421 122.876 76.9034 121.628 76.9034C121.073 76.9034 120.588 76.9728 120.241 76.9728C118.715 77.1809 118.091 77.8744 118.091 78.9147C118.091 81.7582 123.223 87.0291 124.888 87.8613C127.315 89.0403 130.991 89.6645 134.25 89.6645C135.637 89.6645 136.886 89.5951 137.995 89.3177C142.295 88.4161 146.387 85.0872 147.219 80.6485C147.497 79.6082 147.566 78.5679 147.566 77.5276C147.566 75.1003 146.873 72.7422 145.624 70.4536C143.128 66.0149 138.828 64.1424 134.389 62.2699L133.21 61.715C131.546 61.0215 129.396 60.1893 128.425 58.7328C127.939 58.1086 127.731 57.3458 127.731 56.6522C127.731 55.1264 128.633 53.6007 130.02 52.8378C131.129 52.2136 132.586 51.7975 133.973 51.7975C134.458 51.7975 135.013 51.8668 135.429 51.9362C136.678 52.283 137.857 53.1845 138.758 54.2249C139.521 55.0571 139.66 56.1667 140.839 56.1667H141.116C142.573 56.028 144.376 54.2942 145.07 53.1152C145.347 52.6297 145.416 52.2136 145.416 51.7975C145.416 50.4798 144.376 49.4395 143.336 48.5379C141.602 46.9427 140.492 46.3879 138.412 45.6944C137.302 45.3476 136.4 45.1395 135.291 45.1395H134.458ZM157.045 46.1105C156.421 46.2492 155.936 46.5266 155.658 46.9427C155.242 47.4282 155.104 48.1911 155.104 49.0233C155.104 50.4798 155.589 52.1442 155.589 53.1152C155.728 54.5716 155.797 56.028 155.797 57.4151C155.797 60.2586 155.589 63.1715 155.589 66.0149C155.589 70.4536 155.45 75.0309 155.45 79.5389C155.45 81.3421 155.104 83.1453 155.104 84.8791C155.104 85.2952 155.104 85.7113 155.173 86.0581C155.45 88.2081 156.907 88.3468 158.641 88.3468H160.097C162.732 88.3468 163.218 87.2371 163.218 85.1565V84.2549C163.218 78.5679 162.594 72.9503 162.594 67.194C162.594 63.1715 163.218 59.1489 163.218 55.0571V53.67C163.149 53.3233 163.149 53.0458 163.149 52.6991C163.149 51.312 163.287 49.9249 163.426 48.5379V48.0524C163.426 46.6653 163.01 46.3186 161.831 46.3186H161.276C160.097 46.3186 158.849 46.0411 157.739 46.0411C157.531 46.0411 157.323 46.1105 157.045 46.1105ZM173.751 47.2895C173.612 47.5669 173.612 48.0524 173.612 48.3992C173.612 49.7862 174.098 51.312 174.098 52.4217C174.098 55.1264 173.959 57.7619 173.959 60.328C173.959 62.6166 174.028 64.9053 174.098 67.1246L174.375 72.8116C174.445 73.5051 174.445 74.1293 174.445 74.8228V75.7938C174.445 76.8341 174.445 77.8744 174.514 78.9147C174.583 79.5389 174.583 80.1631 174.583 80.7872C174.583 81.6888 174.514 82.5211 174.514 83.4227C174.445 84.3243 174.098 85.2952 174.098 86.2662V86.7516C174.306 88.2774 175.277 88.6935 176.525 88.6935C177.011 88.6935 177.635 88.6242 178.259 88.4855C179.785 88.2081 181.38 88.0694 182.975 88.0694C184.154 88.0694 185.333 88.1387 186.581 88.2774C187.622 88.3468 188.939 88.6242 190.118 88.6242H191.02C192.199 88.4161 194.28 88.7629 195.043 87.4452C195.32 86.8903 195.459 86.1968 195.459 85.5033C195.459 84.2549 195.181 83.0065 194.834 82.1743C194.557 81.5501 189.633 81.4114 188.87 81.4114C187.275 81.4114 185.888 81.8969 184.501 81.8969C183.946 81.8969 183.46 81.8275 182.906 81.6195C181.727 81.0647 181.588 79.4695 181.588 78.0131V76.1406C181.519 75.1003 181.519 74.0599 181.519 73.0196C181.519 69.4826 181.727 66.0149 181.935 62.5473C182.004 60.8828 182.073 59.1489 182.073 57.4845V56.3055C182.073 54.2249 182.073 52.1442 182.212 50.0636C182.281 49.3701 182.559 48.4685 182.559 47.7056C182.559 47.2202 182.42 46.7347 182.073 46.3186C181.657 45.9718 181.033 45.9024 180.478 45.9024C179.646 45.9024 178.814 46.1105 178.19 46.1105C177.219 46.1105 176.525 45.9718 175.832 45.9718C175.138 45.9718 174.445 46.1105 174.098 46.6653L173.751 47.2895ZM207.301 12.98C205.441 12.98 201.101 12.98 200.977 15.708C201.225 19.18 204.077 22.156 205.441 25.132C208.665 31.828 211.517 39.144 214.989 45.716C218.709 52.536 220.569 59.852 224.165 66.796C225.777 69.648 227.513 73.368 228.257 76.468C228.877 79.816 230.613 82.916 231.977 86.264C233.093 88.62 234.457 90.976 236.317 90.976C237.185 90.976 238.177 90.356 239.417 89.116C241.277 86.636 242.021 82.296 243.137 79.32C244.005 77.088 244.129 74.608 244.997 72.376C245.865 69.648 247.353 67.168 248.469 64.564L251.073 58.488C253.925 51.916 256.777 45.096 259.505 38.4C262.481 31.456 266.821 24.76 269.797 17.816C270.045 17.196 270.293 16.576 270.293 15.956C270.293 14.468 268.557 14.22 266.697 14.096C264.093 14.096 261.613 12.98 259.505 12.98C257.645 12.98 256.157 13.848 254.917 16.576C253.677 19.924 251.941 23.52 251.445 26.868C250.949 30.464 248.469 33.936 246.981 37.532C245.493 41.004 243.757 44.476 241.897 47.948C240.781 50.056 240.037 60.224 236.069 60.224C235.697 60.224 235.325 60.1 234.953 59.976C232.473 58.736 231.977 55.016 231.233 52.66L230.861 51.916C229.993 49.312 229.001 46.584 227.761 43.98C225.653 39.516 223.917 34.804 222.057 30.092L221.685 29.224C220.569 26.496 219.453 23.892 218.709 20.916C218.337 19.676 218.461 18.064 217.965 16.824C217.593 15.832 216.477 14.84 215.981 13.724C215.733 13.104 210.897 12.98 208.417 12.98H207.301ZM307.072 13.476C302.36 12.98 297.648 13.104 292.936 12.856C291.2 12.856 288.224 11.988 285.62 11.74H284.628C283.388 11.74 282.396 11.864 281.652 12.236C280.288 13.104 279.916 15.212 279.916 17.444C279.916 19.924 280.288 22.652 280.536 24.016C281.404 29.348 281.652 34.804 281.652 40.384C281.652 42.74 281.528 45.096 281.528 47.452C281.528 49.932 281.28 52.164 281.28 54.396C281.28 55.76 281.28 57.124 281.404 58.488C281.528 60.224 281.528 61.96 281.528 63.82C281.528 68.036 281.28 72.376 280.784 76.344C280.536 77.832 279.792 80.808 279.792 83.412C279.792 85.396 280.288 87.132 281.528 87.876C282.892 88.744 285.62 88.62 287.232 88.744C288.348 88.868 289.34 88.992 290.332 88.992C292.192 88.992 293.928 88.496 295.044 86.636C295.54 85.768 295.788 84.652 295.788 83.536C295.788 79.94 293.928 75.848 293.804 72.872C293.68 71.26 293.432 69.152 293.432 67.044C293.432 64.44 293.804 61.96 294.796 60.472C295.292 59.604 295.912 59.356 296.408 59.356C298.764 59.356 300.996 64.688 302.112 66.176C304.716 69.276 306.7 72.624 309.056 75.972C311.288 79.196 312.652 82.916 315.132 86.016C317.116 88.496 319.1 89.116 321.456 89.116C323.068 89.116 324.804 88.744 326.788 88.62C329.64 88.496 331.376 88.372 331.376 86.636C331.376 86.016 331.252 85.272 330.88 84.28C329.888 82.172 328.4 80.064 326.788 78.204C323.068 73.368 318.48 69.276 315.132 64.192C314.264 62.704 312.652 61.216 311.908 59.852C311.66 59.232 311.412 58.736 311.412 58.24C311.412 57 312.528 56.628 314.016 55.636C317.984 53.156 322.324 51.296 324.928 47.452C326.912 44.476 328.028 39.764 328.028 35.176C328.028 31.456 327.408 27.736 326.044 25.132C322.324 17.692 314.884 14.344 307.072 13.476ZM292.44 30.092C292.44 28.604 292.688 27.116 293.556 26.124C294.548 24.76 296.408 24.512 298.268 24.512C300.5 24.512 302.732 25.008 304.22 25.132C309.304 25.876 313.892 27.24 314.14 33.192V34.184C314.14 37.036 313.272 40.136 311.908 42.74C309.924 46.584 307.072 46.956 302.856 47.204C301.616 47.328 300.128 47.576 298.64 47.576C297.028 47.576 295.54 47.204 294.424 45.84C293.308 44.724 293.06 43.236 293.06 41.624C293.06 40.508 293.184 39.516 293.308 38.4V38.028C293.308 35.796 292.44 32.696 292.44 30.092Z" fill="#E06F00"/>
</svg>
