<svg width="203" height="44" viewBox="0 0 203 44" fill="none" xmlns="http://www.w3.org/2000/svg">
<g filter="url(#filter0_d_274_4142)">
<path d="M0 40.2161V11.0151L9.00901 2L95.6957 2.58794L113.313 3.17588L194.595 2L200 11.407V39.0402L197.798 41H97.8979H2.4024L0 40.2161Z" fill="#A27652"/>
</g>
<path d="M87.217 23.656C87.217 20.464 87.001 19.768 82.705 18.736C79.945 18.064 79.897 18.016 79.897 16.192C79.897 14.8 80.257 14.368 82.297 14.368C83.689 14.368 85.249 14.56 86.569 14.848L86.905 12.304C85.321 11.944 83.641 11.776 82.249 11.776C78.193 11.776 76.873 13.216 76.873 16.12C76.873 19.504 77.401 20.248 81.265 21.112C84.145 21.736 84.193 21.88 84.193 23.656C84.193 25.192 83.833 25.648 81.649 25.648C80.065 25.648 78.625 25.36 77.137 24.904L76.609 27.28C77.665 27.784 79.777 28.24 81.601 28.24C86.329 28.24 87.217 26.68 87.217 23.656ZM95.978 25.552C95.474 25.696 94.946 25.792 94.514 25.792C93.746 25.792 93.458 25.384 93.458 24.76V18.64H96.266L96.458 16.312H93.458V13L90.53 13.408V16.312H88.778V18.64H90.53V25.144C90.53 27.232 91.61 28.24 93.746 28.24C94.49 28.24 95.69 28.048 96.314 27.784L95.978 25.552ZM107.293 20.296C107.293 17.368 106.213 16.072 102.541 16.072C101.245 16.072 99.6372 16.288 98.5332 16.624L98.8932 18.856C99.9252 18.64 101.077 18.496 102.133 18.496C104.005 18.496 104.365 18.952 104.365 20.248V21.472H101.557C99.1812 21.472 98.1492 22.384 98.1492 24.76C98.1492 26.776 99.0612 28.24 101.197 28.24C102.373 28.24 103.621 27.904 104.677 27.208L104.893 28H107.293V20.296ZM104.365 25.312C103.813 25.624 103.021 25.912 102.157 25.912C101.245 25.912 100.981 25.552 100.981 24.736C100.981 23.848 101.245 23.584 102.205 23.584H104.365V25.312ZM116.154 16.072C115.122 16.36 113.73 17.176 113.082 17.608L112.89 16.312H110.418V28H113.346V20.464C114.402 19.792 115.314 19.264 116.442 18.76L116.154 16.072ZM124.572 25.552C124.068 25.696 123.54 25.792 123.108 25.792C122.34 25.792 122.052 25.384 122.052 24.76V18.64H124.86L125.052 16.312H122.052V13L119.124 13.408V16.312H117.372V18.64H119.124V25.144C119.124 27.232 120.204 28.24 122.34 28.24C123.084 28.24 124.284 28.048 124.908 27.784L124.572 25.552Z" fill="white"/>
<defs>
<filter id="filter0_d_274_4142" x="0" y="2" width="203" height="42" filterUnits="userSpaceOnUse" color-interpolation-filters="sRGB">
<feFlood flood-opacity="0" result="BackgroundImageFix"/>
<feColorMatrix in="SourceAlpha" type="matrix" values="0 0 0 0 0 0 0 0 0 0 0 0 0 0 0 0 0 0 127 0" result="hardAlpha"/>
<feOffset dx="3" dy="3"/>
<feComposite in2="hardAlpha" operator="out"/>
<feColorMatrix type="matrix" values="0 0 0 0 0.443137 0 0 0 0 0.254902 0 0 0 0 0.101961 0 0 0 1 0"/>
<feBlend mode="normal" in2="BackgroundImageFix" result="effect1_dropShadow_274_4142"/>
<feBlend mode="normal" in="SourceGraphic" in2="effect1_dropShadow_274_4142" result="shape"/>
</filter>
</defs>
</svg>
