<svg width="577" height="68" viewBox="0 0 577 68" fill="none" xmlns="http://www.w3.org/2000/svg">
<path d="M43.4791 20H47.1751L41.2951 1.352H36.3671L30.4871 20H34.1831L35.3591 16.136H42.2751L43.4791 20ZM38.8311 4.264L41.3791 13.084H36.2271L38.8311 4.264ZM67.1516 6.364H63.6516L60.5156 16.724L57.4076 6.364H53.9076L58.2756 20H62.7836L67.1516 6.364ZM72.6787 20V6.364H69.2627V20H72.6787ZM72.6787 4.432V0.483999H69.2627V4.432H72.6787ZM83.2829 6.084C82.0789 6.42 80.4549 7.372 79.6989 7.876L79.4749 6.364H76.5909V20H80.0069V11.208C81.2389 10.424 82.3029 9.808 83.6189 9.22L83.2829 6.084ZM93.1032 17.144C92.5152 17.312 91.8992 17.424 91.3952 17.424C90.4992 17.424 90.1632 16.948 90.1632 16.22V9.08H93.4392L93.6632 6.364H90.1632V2.5L86.7472 2.976V6.364H84.7032V9.08H86.7472V16.668C86.7472 19.104 88.0072 20.28 90.4992 20.28C91.3672 20.28 92.7672 20.056 93.4952 19.748L93.1032 17.144ZM96.0563 6.364V16.248C96.0563 18.684 96.8683 20.28 99.1363 20.28C100.732 20.28 102.888 19.692 104.596 18.852L104.932 20H107.536V6.364H104.12V15.828C102.888 16.472 101.404 16.976 100.564 16.976C99.7803 16.976 99.4723 16.612 99.4723 15.884V6.364H96.0563ZM121.562 11.012C121.562 7.596 120.302 6.084 116.018 6.084C114.506 6.084 112.63 6.336 111.342 6.728L111.762 9.332C112.966 9.08 114.31 8.912 115.542 8.912C117.726 8.912 118.146 9.444 118.146 10.956V12.384H114.87C112.098 12.384 110.894 13.448 110.894 16.22C110.894 18.572 111.958 20.28 114.45 20.28C115.822 20.28 117.278 19.888 118.51 19.076L118.762 20H121.562V11.012ZM118.146 16.864C117.502 17.228 116.578 17.564 115.57 17.564C114.506 17.564 114.198 17.144 114.198 16.192C114.198 15.156 114.506 14.848 115.626 14.848H118.146V16.864ZM128.624 20V0.316L125.208 0.791999V20H128.624ZM145.107 6.084C143.903 6.42 142.279 7.372 141.523 7.876L141.299 6.364H138.415V20H141.831V11.208C143.063 10.424 144.127 9.808 145.443 9.22L145.107 6.084ZM150.539 15.184V14.484H158.127V11.572C158.127 8.632 157.147 6.084 152.779 6.084C148.411 6.084 147.123 8.52 147.123 11.404V15.016C147.123 18.292 148.607 20.28 152.891 20.28C154.515 20.28 156.363 20 157.903 19.412L157.371 16.836C155.887 17.284 154.515 17.48 153.199 17.48C151.127 17.48 150.539 16.836 150.539 15.184ZM150.539 11.068C150.539 9.78 151.127 8.884 152.807 8.884C154.487 8.884 154.879 9.78 154.879 11.068V11.74H150.539V11.068ZM171.328 11.012C171.328 7.596 170.068 6.084 165.784 6.084C164.272 6.084 162.396 6.336 161.108 6.728L161.528 9.332C162.732 9.08 164.076 8.912 165.308 8.912C167.492 8.912 167.912 9.444 167.912 10.956V12.384H164.636C161.864 12.384 160.66 13.448 160.66 16.22C160.66 18.572 161.724 20.28 164.216 20.28C165.588 20.28 167.044 19.888 168.276 19.076L168.528 20H171.328V11.012ZM167.912 16.864C167.268 17.228 166.344 17.564 165.336 17.564C164.272 17.564 163.964 17.144 163.964 16.192C163.964 15.156 164.272 14.848 165.392 14.848H167.912V16.864ZM178.39 20V0.316L174.974 0.791999V20H178.39ZM185.718 20V6.364H182.302V20H185.718ZM185.718 4.432V0.483999H182.302V4.432H185.718ZM196.49 17.144C195.902 17.312 195.286 17.424 194.782 17.424C193.886 17.424 193.55 16.948 193.55 16.22V9.08H196.826L197.05 6.364H193.55V2.5L190.134 2.976V6.364H188.09V9.08H190.134V16.668C190.134 19.104 191.394 20.28 193.886 20.28C194.754 20.28 196.154 20.056 196.882 19.748L196.49 17.144ZM211.499 6.364H207.999L204.863 16.724L201.755 6.364H198.255L202.567 20H203.771L202.063 25.516H205.311L207.131 20L211.499 6.364ZM230.889 10.816C230.889 7.708 229.433 6.084 226.689 6.084C224.981 6.084 223.581 6.644 222.377 7.512L222.041 6.364H219.325V25.992L222.741 25.516V19.888C223.805 20.112 225.177 20.28 226.381 20.28C229.545 20.28 230.889 18.488 230.889 15.464V10.816ZM222.741 10.228C223.469 9.556 224.673 8.996 225.793 8.996C227.053 8.996 227.473 9.612 227.473 10.732V15.548C227.473 16.78 226.997 17.368 225.765 17.368C224.785 17.368 223.637 17.2 222.741 17.004V10.228ZM237.671 20V0.316L234.255 0.791999V20H237.671ZM251.691 11.012C251.691 7.596 250.431 6.084 246.147 6.084C244.635 6.084 242.759 6.336 241.471 6.728L241.891 9.332C243.095 9.08 244.439 8.912 245.671 8.912C247.855 8.912 248.275 9.444 248.275 10.956V12.384H244.999C242.227 12.384 241.023 13.448 241.023 16.22C241.023 18.572 242.087 20.28 244.579 20.28C245.951 20.28 247.407 19.888 248.639 19.076L248.891 20H251.691V11.012ZM248.275 16.864C247.631 17.228 246.707 17.564 245.699 17.564C244.635 17.564 244.327 17.144 244.327 16.192C244.327 15.156 244.635 14.848 245.755 14.848H248.275V16.864ZM262.197 17.144C261.609 17.312 260.993 17.424 260.489 17.424C259.593 17.424 259.257 16.948 259.257 16.22V9.08H262.533L262.757 6.364H259.257V2.5L255.841 2.976V6.364H253.797V9.08H255.841V16.668C255.841 19.104 257.101 20.28 259.593 20.28C260.461 20.28 261.861 20.056 262.589 19.748L262.197 17.144ZM273.494 0.623999C272.598 0.371999 271.618 0.231999 270.554 0.231999C267.53 0.231999 266.214 1.632 266.214 4.46V6.364H264.03V9.08H266.214V20H269.63V9.08H272.906L273.102 6.364H269.63V4.656C269.63 3.62 269.826 3.032 271.17 3.032C271.73 3.032 272.486 3.116 273.13 3.256L273.494 0.623999ZM286.499 14.904V11.46C286.499 8.66 285.239 6.084 280.563 6.084C275.887 6.084 274.627 8.66 274.627 11.46V14.904C274.627 17.704 275.887 20.28 280.563 20.28C285.239 20.28 286.499 17.704 286.499 14.904ZM283.083 11.348V15.016C283.083 16.556 282.383 17.368 280.563 17.368C278.743 17.368 278.043 16.556 278.043 15.016V11.348C278.043 9.808 278.743 8.996 280.563 8.996C282.383 8.996 283.083 9.808 283.083 11.348ZM296.482 6.084C295.278 6.42 293.654 7.372 292.898 7.876L292.674 6.364H289.79V20H293.206V11.208C294.438 10.424 295.502 9.808 296.818 9.22L296.482 6.084ZM310.594 20V10.536C311.658 9.92 313.31 9.388 314.15 9.388C314.934 9.388 315.242 9.752 315.242 10.48V20H318.658V10.116C318.658 7.68 317.846 6.084 315.578 6.084C313.926 6.084 311.742 6.7 310.09 7.54C309.642 6.616 308.83 6.084 307.514 6.084C305.918 6.084 303.762 6.672 302.054 7.512L301.718 6.364H299.114V20H302.53V10.536C303.762 9.892 305.246 9.388 306.086 9.388C306.87 9.388 307.178 9.752 307.178 10.48V20H310.594ZM335.177 17.144C334.589 17.312 333.973 17.424 333.469 17.424C332.573 17.424 332.237 16.948 332.237 16.22V9.08H335.513L335.737 6.364H332.237V2.5L328.821 2.976V6.364H326.777V9.08H328.821V16.668C328.821 19.104 330.081 20.28 332.573 20.28C333.441 20.28 334.841 20.056 335.569 19.748L335.177 17.144ZM349.527 14.904V11.46C349.527 8.66 348.267 6.084 343.591 6.084C338.915 6.084 337.655 8.66 337.655 11.46V14.904C337.655 17.704 338.915 20.28 343.591 20.28C348.267 20.28 349.527 17.704 349.527 14.904ZM346.111 11.348V15.016C346.111 16.556 345.411 17.368 343.591 17.368C341.771 17.368 341.071 16.556 341.071 15.016V11.348C341.071 9.808 341.771 8.996 343.591 8.996C345.411 8.996 346.111 9.808 346.111 11.348ZM370.176 20V10.116C370.176 7.68 369.364 6.084 367.096 6.084C365.64 6.084 363.624 6.616 362.112 7.4V0.316L358.696 0.791999V20H362.112V10.536C363.344 9.892 364.828 9.388 365.668 9.388C366.452 9.388 366.76 9.752 366.76 10.48V20H370.176ZM376.754 15.184V14.484H384.342V11.572C384.342 8.632 383.362 6.084 378.994 6.084C374.626 6.084 373.338 8.52 373.338 11.404V15.016C373.338 18.292 374.822 20.28 379.106 20.28C380.73 20.28 382.578 20 384.118 19.412L383.586 16.836C382.102 17.284 380.73 17.48 379.414 17.48C377.342 17.48 376.754 16.836 376.754 15.184ZM376.754 11.068C376.754 9.78 377.342 8.884 379.022 8.884C380.702 8.884 381.094 9.78 381.094 11.068V11.74H376.754V11.068ZM390.851 20V0.316L387.435 0.791999V20H390.851ZM406.327 10.816C406.327 7.708 404.871 6.084 402.127 6.084C400.419 6.084 399.019 6.644 397.815 7.512L397.479 6.364H394.763V25.992L398.179 25.516V19.888C399.243 20.112 400.615 20.28 401.819 20.28C404.983 20.28 406.327 18.488 406.327 15.464V10.816ZM398.179 10.228C398.907 9.556 400.111 8.996 401.231 8.996C402.491 8.996 402.911 9.612 402.911 10.732V15.548C402.911 16.78 402.435 17.368 401.203 17.368C400.223 17.368 399.075 17.2 398.179 17.004V10.228ZM418.371 15.184V14.484H425.959V11.572C425.959 8.632 424.979 6.084 420.611 6.084C416.243 6.084 414.955 8.52 414.955 11.404V15.016C414.955 18.292 416.439 20.28 420.723 20.28C422.347 20.28 424.195 20 425.735 19.412L425.203 16.836C423.719 17.284 422.347 17.48 421.031 17.48C418.959 17.48 418.371 16.836 418.371 15.184ZM418.371 11.068C418.371 9.78 418.959 8.884 420.639 8.884C422.319 8.884 422.711 9.78 422.711 11.068V11.74H418.371V11.068ZM432.468 20V0.316L429.052 0.791999V20H432.468ZM439.18 15.184V14.484H446.768V11.572C446.768 8.632 445.788 6.084 441.42 6.084C437.052 6.084 435.764 8.52 435.764 11.404V15.016C435.764 18.292 437.248 20.28 441.532 20.28C443.156 20.28 445.004 20 446.544 19.412L446.012 16.836C444.528 17.284 443.156 17.48 441.84 17.48C439.768 17.48 439.18 16.836 439.18 15.184ZM439.18 11.068C439.18 9.78 439.768 8.884 441.448 8.884C443.128 8.884 443.52 9.78 443.52 11.068V11.74H439.18V11.068ZM461.34 20V10.536C462.404 9.92 464.056 9.388 464.896 9.388C465.68 9.388 465.988 9.752 465.988 10.48V20H469.404V10.116C469.404 7.68 468.592 6.084 466.324 6.084C464.672 6.084 462.488 6.7 460.836 7.54C460.388 6.616 459.576 6.084 458.26 6.084C456.664 6.084 454.508 6.672 452.8 7.512L452.464 6.364H449.86V20H453.276V10.536C454.508 9.892 455.992 9.388 456.832 9.388C457.616 9.388 457.924 9.752 457.924 10.48V20H461.34ZM475.985 15.184V14.484H483.573V11.572C483.573 8.632 482.593 6.084 478.225 6.084C473.857 6.084 472.569 8.52 472.569 11.404V15.016C472.569 18.292 474.053 20.28 478.337 20.28C479.961 20.28 481.809 20 483.349 19.412L482.817 16.836C481.333 17.284 479.961 17.48 478.645 17.48C476.573 17.48 475.985 16.836 475.985 15.184ZM475.985 11.068C475.985 9.78 476.573 8.884 478.253 8.884C479.933 8.884 480.325 9.78 480.325 11.068V11.74H475.985V11.068ZM498.145 20V10.116C498.145 7.68 497.333 6.084 495.065 6.084C493.469 6.084 491.313 6.672 489.605 7.512L489.269 6.364H486.665V20H490.081V10.536C491.313 9.892 492.797 9.388 493.637 9.388C494.421 9.388 494.729 9.752 494.729 10.48V20H498.145ZM508.783 17.144C508.195 17.312 507.579 17.424 507.075 17.424C506.179 17.424 505.843 16.948 505.843 16.22V9.08H509.119L509.343 6.364H505.843V2.5L502.427 2.976V6.364H500.383V9.08H502.427V16.668C502.427 19.104 503.687 20.28 506.179 20.28C507.047 20.28 508.447 20.056 509.175 19.748L508.783 17.144ZM521.984 11.012C521.984 7.596 520.724 6.084 516.44 6.084C514.928 6.084 513.052 6.336 511.764 6.728L512.184 9.332C513.388 9.08 514.732 8.912 515.964 8.912C518.148 8.912 518.568 9.444 518.568 10.956V12.384H515.292C512.52 12.384 511.316 13.448 511.316 16.22C511.316 18.572 512.38 20.28 514.872 20.28C516.244 20.28 517.7 19.888 518.932 19.076L519.184 20H521.984V11.012ZM518.568 16.864C517.924 17.228 517 17.564 515.992 17.564C514.928 17.564 514.62 17.144 514.62 16.192C514.62 15.156 514.928 14.848 516.048 14.848H518.568V16.864ZM532.322 6.084C531.118 6.42 529.494 7.372 528.738 7.876L528.514 6.364H525.63V20H529.046V11.208C530.278 10.424 531.342 9.808 532.658 9.22L532.322 6.084ZM547.226 6.364H543.726L540.59 16.724L537.482 6.364H533.982L538.294 20H539.498L537.79 25.516H541.038L542.858 20L547.226 6.364ZM9.71756 58.024C9.71756 55.224 9.35356 54.72 5.54556 53.712C3.69756 53.236 3.61356 53.152 3.61356 52.06C3.61356 51.22 3.86556 50.884 5.34956 50.884C6.41356 50.884 8.06556 51.08 9.10156 51.276L9.43756 48.56C8.26156 48.252 6.60956 48.084 5.34956 48.084C1.45756 48.084 0.253563 49.288 0.253563 52.032C0.253563 54.664 0.645563 55.504 3.97756 56.316C6.18956 56.848 6.35756 57.268 6.35756 58.108C6.35756 59.144 6.13356 59.48 4.62156 59.48C3.22156 59.48 1.70956 59.228 0.561563 58.892L0.0855626 61.496C1.34556 61.944 3.33356 62.28 4.78956 62.28C8.90556 62.28 9.71756 60.656 9.71756 58.024ZM19.945 59.144C19.357 59.312 18.741 59.424 18.237 59.424C17.341 59.424 17.005 58.948 17.005 58.22V51.08H20.281L20.505 48.364H17.005V44.5L13.589 44.976V48.364H11.545V51.08H13.589V58.668C13.589 61.104 14.849 62.28 17.341 62.28C18.209 62.28 19.609 62.056 20.337 61.748L19.945 59.144ZM22.8981 48.364V58.248C22.8981 60.684 23.7101 62.28 25.9781 62.28C27.5741 62.28 29.7301 61.692 31.4381 60.852L31.7741 62H34.3781V48.364H30.9621V57.828C29.7301 58.472 28.2461 58.976 27.4061 58.976C26.6221 58.976 26.3141 58.612 26.3141 57.884V48.364H22.8981ZM37.7359 57.548C37.7359 60.656 39.1919 62.28 41.9359 62.28C43.6439 62.28 45.0439 61.72 46.2479 60.852L46.5839 62H49.2999V42.316L45.8839 42.792V48.476C44.8199 48.252 43.4479 48.084 42.2439 48.084C39.0799 48.084 37.7359 49.876 37.7359 52.9V57.548ZM45.8839 58.136C45.1559 58.808 43.9519 59.368 42.8319 59.368C41.5719 59.368 41.1519 58.752 41.1519 57.632V52.816C41.1519 51.584 41.6279 50.996 42.8599 50.996C43.8399 50.996 44.9879 51.164 45.8839 51.36V58.136ZM56.0256 57.184V56.484H63.6136V53.572C63.6136 50.632 62.6336 48.084 58.2656 48.084C53.8976 48.084 52.6096 50.52 52.6096 53.404V57.016C52.6096 60.292 54.0936 62.28 58.3776 62.28C60.0016 62.28 61.8496 62 63.3896 61.412L62.8576 58.836C61.3736 59.284 60.0016 59.48 58.6856 59.48C56.6136 59.48 56.0256 58.836 56.0256 57.184ZM56.0256 53.068C56.0256 51.78 56.6136 50.884 58.2936 50.884C59.9736 50.884 60.3656 51.78 60.3656 53.068V53.74H56.0256V53.068ZM78.1861 62V52.116C78.1861 49.68 77.3741 48.084 75.1061 48.084C73.5101 48.084 71.3541 48.672 69.6461 49.512L69.3101 48.364H66.7061V62H70.1221V52.536C71.3541 51.892 72.8381 51.388 73.6781 51.388C74.4621 51.388 74.7701 51.752 74.7701 52.48V62H78.1861ZM88.8239 59.144C88.2359 59.312 87.6199 59.424 87.1159 59.424C86.2199 59.424 85.8839 58.948 85.8839 58.22V51.08H89.1599L89.3839 48.364H85.8839V44.5L82.4679 44.976V48.364H80.4239V51.08H82.4679V58.668C82.4679 61.104 83.7279 62.28 86.2199 62.28C87.0879 62.28 88.4879 62.056 89.2159 61.748L88.8239 59.144ZM101.073 58.024C101.073 55.224 100.709 54.72 96.901 53.712C95.053 53.236 94.969 53.152 94.969 52.06C94.969 51.22 95.221 50.884 96.705 50.884C97.769 50.884 99.421 51.08 100.457 51.276L100.793 48.56C99.617 48.252 97.965 48.084 96.705 48.084C92.813 48.084 91.609 49.288 91.609 52.032C91.609 54.664 92.001 55.504 95.333 56.316C97.545 56.848 97.713 57.268 97.713 58.108C97.713 59.144 97.489 59.48 95.977 59.48C94.577 59.48 93.065 59.228 91.917 58.892L91.441 61.496C92.701 61.944 94.689 62.28 96.145 62.28C100.261 62.28 101.073 60.656 101.073 58.024ZM119.475 58.024C119.475 55.224 119.111 54.72 115.303 53.712C113.455 53.236 113.371 53.152 113.371 52.06C113.371 51.22 113.623 50.884 115.107 50.884C116.171 50.884 117.823 51.08 118.859 51.276L119.195 48.56C118.019 48.252 116.367 48.084 115.107 48.084C111.215 48.084 110.011 49.288 110.011 52.032C110.011 54.664 110.403 55.504 113.735 56.316C115.947 56.848 116.115 57.268 116.115 58.108C116.115 59.144 115.891 59.48 114.379 59.48C112.979 59.48 111.467 59.228 110.319 58.892L109.843 61.496C111.103 61.944 113.091 62.28 114.547 62.28C118.663 62.28 119.475 60.656 119.475 58.024ZM129.703 59.144C129.115 59.312 128.499 59.424 127.995 59.424C127.099 59.424 126.763 58.948 126.763 58.22V51.08H130.039L130.263 48.364H126.763V44.5L123.347 44.976V48.364H121.303V51.08H123.347V58.668C123.347 61.104 124.607 62.28 127.099 62.28C127.967 62.28 129.367 62.056 130.095 61.748L129.703 59.144ZM132.656 48.364V58.248C132.656 60.684 133.468 62.28 135.736 62.28C137.332 62.28 139.488 61.692 141.196 60.852L141.532 62H144.136V48.364H140.72V57.828C139.488 58.472 138.004 58.976 137.164 58.976C136.38 58.976 136.072 58.612 136.072 57.884V48.364H132.656ZM147.494 57.548C147.494 60.656 148.95 62.28 151.694 62.28C153.402 62.28 154.802 61.72 156.006 60.852L156.342 62H159.058V42.316L155.642 42.792V48.476C154.578 48.252 153.206 48.084 152.002 48.084C148.838 48.084 147.494 49.876 147.494 52.9V57.548ZM155.642 58.136C154.914 58.808 153.71 59.368 152.59 59.368C151.33 59.368 150.91 58.752 150.91 57.632V52.816C150.91 51.584 151.386 50.996 152.618 50.996C153.598 50.996 154.746 51.164 155.642 51.36V58.136ZM165.783 57.184V56.484H173.371V53.572C173.371 50.632 172.391 48.084 168.023 48.084C163.655 48.084 162.367 50.52 162.367 53.404V57.016C162.367 60.292 163.851 62.28 168.135 62.28C169.759 62.28 171.607 62 173.147 61.412L172.615 58.836C171.131 59.284 169.759 59.48 168.443 59.48C166.371 59.48 165.783 58.836 165.783 57.184ZM165.783 53.068C165.783 51.78 166.371 50.884 168.051 50.884C169.731 50.884 170.123 51.78 170.123 53.068V53.74H165.783V53.068ZM187.944 62V52.116C187.944 49.68 187.132 48.084 184.864 48.084C183.268 48.084 181.112 48.672 179.404 49.512L179.068 48.364H176.464V62H179.88V52.536C181.112 51.892 182.596 51.388 183.436 51.388C184.22 51.388 184.528 51.752 184.528 52.48V62H187.944ZM198.582 59.144C197.994 59.312 197.378 59.424 196.874 59.424C195.978 59.424 195.642 58.948 195.642 58.22V51.08H198.918L199.142 48.364H195.642V44.5L192.226 44.976V48.364H190.182V51.08H192.226V58.668C192.226 61.104 193.486 62.28 195.978 62.28C196.846 62.28 198.246 62.056 198.974 61.748L198.582 59.144ZM210.831 58.024C210.831 55.224 210.467 54.72 206.659 53.712C204.811 53.236 204.727 53.152 204.727 52.06C204.727 51.22 204.979 50.884 206.463 50.884C207.527 50.884 209.179 51.08 210.215 51.276L210.551 48.56C209.375 48.252 207.723 48.084 206.463 48.084C202.571 48.084 201.367 49.288 201.367 52.032C201.367 54.664 201.759 55.504 205.091 56.316C207.303 56.848 207.471 57.268 207.471 58.108C207.471 59.144 207.247 59.48 205.735 59.48C204.335 59.48 202.823 59.228 201.675 58.892L201.199 61.496C202.459 61.944 204.447 62.28 205.903 62.28C210.019 62.28 210.831 60.656 210.831 58.024ZM225.089 62L227.973 52.2L230.857 62H234.805L237.325 48.364H234.133L232.453 57.492L229.765 48.364H226.209L223.493 57.492L221.813 48.364H218.621L221.141 62H225.089ZM243.208 62V48.364H239.792V62H243.208ZM243.208 46.432V42.484H239.792V46.432H243.208ZM253.98 59.144C253.392 59.312 252.776 59.424 252.272 59.424C251.376 59.424 251.04 58.948 251.04 58.22V51.08H254.316L254.54 48.364H251.04V44.5L247.624 44.976V48.364H245.58V51.08H247.624V58.668C247.624 61.104 248.884 62.28 251.376 62.28C252.244 62.28 253.644 62.056 254.372 61.748L253.98 59.144ZM268.553 62V52.116C268.553 49.68 267.741 48.084 265.473 48.084C264.017 48.084 262.001 48.616 260.489 49.4V42.316L257.073 42.792V62H260.489V52.536C261.721 51.892 263.205 51.388 264.045 51.388C264.829 51.388 265.137 51.752 265.137 52.48V62H268.553ZM281.626 62V42.316L278.21 42.792V62H281.626ZM288.954 62V48.364H285.538V62H288.954ZM288.954 46.432V42.484H285.538V46.432H288.954ZM299.726 59.144C299.138 59.312 298.522 59.424 298.018 59.424C297.122 59.424 296.786 58.948 296.786 58.22V51.08H300.062L300.286 48.364H296.786V44.5L293.37 44.976V48.364H291.326V51.08H293.37V58.668C293.37 61.104 294.63 62.28 297.122 62.28C297.99 62.28 299.39 62.056 300.118 61.748L299.726 59.144ZM305.619 57.184V56.484H313.207V53.572C313.207 50.632 312.227 48.084 307.859 48.084C303.491 48.084 302.203 50.52 302.203 53.404V57.016C302.203 60.292 303.687 62.28 307.971 62.28C309.595 62.28 311.443 62 312.983 61.412L312.451 58.836C310.967 59.284 309.595 59.48 308.279 59.48C306.207 59.48 305.619 58.836 305.619 57.184ZM305.619 53.068C305.619 51.78 306.207 50.884 307.887 50.884C309.567 50.884 309.959 51.78 309.959 53.068V53.74H305.619V53.068ZM322.992 48.084C321.788 48.42 320.164 49.372 319.408 49.876L319.184 48.364H316.3V62H319.716V53.208C320.948 52.424 322.012 51.808 323.328 51.22L322.992 48.084ZM335.65 53.012C335.65 49.596 334.39 48.084 330.106 48.084C328.594 48.084 326.718 48.336 325.43 48.728L325.85 51.332C327.054 51.08 328.398 50.912 329.63 50.912C331.814 50.912 332.234 51.444 332.234 52.956V54.384H328.958C326.186 54.384 324.982 55.448 324.982 58.22C324.982 60.572 326.046 62.28 328.538 62.28C329.91 62.28 331.366 61.888 332.598 61.076L332.85 62H335.65V53.012ZM332.234 58.864C331.59 59.228 330.666 59.564 329.658 59.564C328.594 59.564 328.286 59.144 328.286 58.192C328.286 57.156 328.594 56.848 329.714 56.848H332.234V58.864ZM344.56 62.28C345.68 62.28 346.996 62.084 347.892 61.776L347.472 58.976C346.492 59.228 345.512 59.34 344.644 59.34C342.684 59.34 342.096 58.752 342.096 57.072V53.292C342.096 51.612 342.684 51.024 344.644 51.024C345.316 51.024 346.548 51.136 347.472 51.388L347.892 48.588C346.884 48.252 345.512 48.084 344.56 48.084C340.276 48.084 338.68 49.652 338.68 53.32V57.044C338.68 60.712 340.276 62.28 344.56 62.28ZM362.587 48.364H359.087L355.951 58.724L352.843 48.364H349.343L353.655 62H354.859L353.151 67.516H356.399L358.219 62L362.587 48.364ZM380.521 53.012C380.521 49.596 379.261 48.084 374.977 48.084C373.465 48.084 371.589 48.336 370.301 48.728L370.721 51.332C371.925 51.08 373.269 50.912 374.501 50.912C376.685 50.912 377.105 51.444 377.105 52.956V54.384H373.829C371.057 54.384 369.853 55.448 369.853 58.22C369.853 60.572 370.917 62.28 373.409 62.28C374.781 62.28 376.237 61.888 377.469 61.076L377.721 62H380.521V53.012ZM377.105 58.864C376.461 59.228 375.537 59.564 374.529 59.564C373.465 59.564 373.157 59.144 373.157 58.192C373.157 57.156 373.465 56.848 374.585 56.848H377.105V58.864ZM395.647 62V52.116C395.647 49.68 394.835 48.084 392.567 48.084C390.971 48.084 388.815 48.672 387.107 49.512L386.771 48.364H384.167V62H387.583V52.536C388.815 51.892 390.299 51.388 391.139 51.388C391.923 51.388 392.231 51.752 392.231 52.48V62H395.647ZM398.865 57.548C398.865 60.656 400.321 62.28 403.065 62.28C404.773 62.28 406.173 61.72 407.377 60.852L407.713 62H410.429V42.316L407.013 42.792V48.476C405.949 48.252 404.577 48.084 403.373 48.084C400.209 48.084 398.865 49.876 398.865 52.9V57.548ZM407.013 58.136C406.285 58.808 405.081 59.368 403.961 59.368C402.701 59.368 402.281 58.752 402.281 57.632V52.816C402.281 51.584 402.757 50.996 403.989 50.996C404.969 50.996 406.117 51.164 407.013 51.36V58.136ZM429.389 58.024C429.389 55.224 429.025 54.72 425.217 53.712C423.369 53.236 423.285 53.152 423.285 52.06C423.285 51.22 423.537 50.884 425.021 50.884C426.085 50.884 427.737 51.08 428.773 51.276L429.109 48.56C427.933 48.252 426.281 48.084 425.021 48.084C421.129 48.084 419.925 49.288 419.925 52.032C419.925 54.664 420.317 55.504 423.649 56.316C425.861 56.848 426.029 57.268 426.029 58.108C426.029 59.144 425.805 59.48 424.293 59.48C422.893 59.48 421.381 59.228 420.233 58.892L419.757 61.496C421.017 61.944 423.005 62.28 424.461 62.28C428.577 62.28 429.389 60.656 429.389 58.024ZM438.021 62.28C439.141 62.28 440.457 62.084 441.353 61.776L440.933 58.976C439.953 59.228 438.973 59.34 438.105 59.34C436.145 59.34 435.557 58.752 435.557 57.072V53.292C435.557 51.612 436.145 51.024 438.105 51.024C438.777 51.024 440.009 51.136 440.933 51.388L441.353 48.588C440.345 48.252 438.973 48.084 438.021 48.084C433.737 48.084 432.141 49.652 432.141 53.32V57.044C432.141 60.712 433.737 62.28 438.021 62.28ZM447.903 62V48.364H444.487V62H447.903ZM447.903 46.432V42.484H444.487V46.432H447.903ZM454.615 57.184V56.484H462.203V53.572C462.203 50.632 461.223 48.084 456.855 48.084C452.487 48.084 451.199 50.52 451.199 53.404V57.016C451.199 60.292 452.683 62.28 456.967 62.28C458.591 62.28 460.439 62 461.979 61.412L461.447 58.836C459.963 59.284 458.591 59.48 457.275 59.48C455.203 59.48 454.615 58.836 454.615 57.184ZM454.615 53.068C454.615 51.78 455.203 50.884 456.883 50.884C458.563 50.884 458.955 51.78 458.955 53.068V53.74H454.615V53.068ZM476.776 62V52.116C476.776 49.68 475.964 48.084 473.696 48.084C472.1 48.084 469.944 48.672 468.236 49.512L467.9 48.364H465.296V62H468.712V52.536C469.944 51.892 471.428 51.388 472.268 51.388C473.052 51.388 473.36 51.752 473.36 52.48V62H476.776ZM485.818 62.28C486.938 62.28 488.254 62.084 489.15 61.776L488.73 58.976C487.75 59.228 486.77 59.34 485.902 59.34C483.942 59.34 483.354 58.752 483.354 57.072V53.292C483.354 51.612 483.942 51.024 485.902 51.024C486.574 51.024 487.806 51.136 488.73 51.388L489.15 48.588C488.142 48.252 486.77 48.084 485.818 48.084C481.534 48.084 479.938 49.652 479.938 53.32V57.044C479.938 60.712 481.534 62.28 485.818 62.28ZM494.865 57.184V56.484H502.453V53.572C502.453 50.632 501.473 48.084 497.105 48.084C492.737 48.084 491.449 50.52 491.449 53.404V57.016C491.449 60.292 492.933 62.28 497.217 62.28C498.841 62.28 500.689 62 502.229 61.412L501.697 58.836C500.213 59.284 498.841 59.48 497.525 59.48C495.453 59.48 494.865 58.836 494.865 57.184ZM494.865 53.068C494.865 51.78 495.453 50.884 497.133 50.884C498.813 50.884 499.205 51.78 499.205 53.068V53.74H494.865V53.068ZM520.581 58.024C520.581 55.224 520.217 54.72 516.409 53.712C514.561 53.236 514.477 53.152 514.477 52.06C514.477 51.22 514.729 50.884 516.213 50.884C517.277 50.884 518.929 51.08 519.965 51.276L520.301 48.56C519.125 48.252 517.473 48.084 516.213 48.084C512.321 48.084 511.117 49.288 511.117 52.032C511.117 54.664 511.509 55.504 514.841 56.316C517.053 56.848 517.221 57.268 517.221 58.108C517.221 59.144 516.997 59.48 515.485 59.48C514.085 59.48 512.573 59.228 511.425 58.892L510.949 61.496C512.209 61.944 514.197 62.28 515.653 62.28C519.769 62.28 520.581 60.656 520.581 58.024ZM527.364 62V42.316L523.948 42.792V62H527.364ZM531.732 48.364L527.84 55.112L531.956 62H535.708L531.536 55.112L535.54 48.364H531.732ZM541.583 62V48.364H538.167V62H541.583ZM541.583 46.432V42.484H538.167V46.432H541.583ZM548.911 62V42.316L545.495 42.792V62H548.911ZM556.239 62V42.316L552.823 42.792V62H556.239ZM569.307 58.024C569.307 55.224 568.943 54.72 565.135 53.712C563.287 53.236 563.203 53.152 563.203 52.06C563.203 51.22 563.455 50.884 564.939 50.884C566.003 50.884 567.655 51.08 568.691 51.276L569.027 48.56C567.851 48.252 566.199 48.084 564.939 48.084C561.047 48.084 559.843 49.288 559.843 52.032C559.843 54.664 560.235 55.504 563.567 56.316C565.779 56.848 565.947 57.268 565.947 58.108C565.947 59.144 565.723 59.48 564.211 59.48C562.811 59.48 561.299 59.228 560.151 58.892L559.675 61.496C560.935 61.944 562.923 62.28 564.379 62.28C568.495 62.28 569.307 60.656 569.307 58.024ZM572.815 62H576.287V58.08H572.815V62Z" fill="#1C1A10"/>
</svg>
