<svg width="454" height="626" viewBox="0 0 454 626" fill="none" xmlns="http://www.w3.org/2000/svg">
<path d="M25.5 370.5L55.5 19L388 165L265.5 238.5L434 540L324 603L151.5 304.5L25.5 370.5Z" fill="white"/>
<path fill-rule="evenodd" clip-rule="evenodd" d="M48.5616 0.915127C46.6796 2.47213 43.3226 15.2491 41.1656 29.0631C40.3206 34.4681 38.9086 40.2861 38.0256 41.9931C36.8186 44.3271 36.2156 49.9381 35.5906 64.6661C35.1336 75.4291 34.5126 85.8111 34.2106 87.7361C31.6926 103.799 29.6866 124.017 29.1996 138.236C28.3106 164.196 24.9276 204.202 21.5456 228.736C20.4466 236.711 17.5316 252.572 15.0676 263.982C12.6036 275.393 10.1406 288.668 9.59457 293.482C9.04757 298.297 7.93962 307.861 7.13162 314.736C6.32362 321.611 5.2046 332.861 4.6456 339.736C4.0856 346.611 2.69162 357.556 1.54562 364.058C0.318624 371.025 -0.268416 377.313 0.117584 379.368C1.33458 385.855 10.7186 393.598 19.4886 395.352C21.3766 395.73 24.7146 395.3 27.8896 394.27C35.2416 391.885 56.1886 381.774 65.9746 375.886C70.4756 373.178 78.4336 368.426 83.6586 365.328C92.3566 360.169 103.074 352.979 114.659 344.529C117.134 342.724 121.634 338.959 124.659 336.163C127.684 333.366 133.196 329.435 136.908 327.427L143.657 323.775L146.011 327.506C149.076 332.364 166.523 365.646 169.699 372.695C171.052 375.697 174.165 380.872 176.616 384.195C179.067 387.518 183.468 394.687 186.396 400.128C189.324 405.568 194.106 413.668 197.023 418.128C199.94 422.587 212.096 445.136 224.036 468.236C250.128 518.713 255.952 529.474 263.55 541.236C266.747 546.186 271.481 553.715 274.07 557.967C276.659 562.219 280.726 568.09 283.108 571.014C288.539 577.682 299.695 594.652 303.09 601.412C304.503 604.225 305.659 607.818 305.659 609.397C305.659 614.273 308.901 618.851 314.657 622.103C321.736 626.102 327.364 626.15 334.742 622.275C337.721 620.709 343.935 617.941 348.551 616.122C358.222 612.311 379.484 600.873 397.908 589.57C404.92 585.269 417.97 578.099 426.908 573.638C435.846 569.176 444.675 564.385 446.528 562.989C451.074 559.567 453.597 553.493 453.769 545.557C453.934 537.939 453.306 535.592 449.668 530.236C448.174 528.036 446.194 523.93 445.267 521.112C443.651 516.199 432.337 495.594 426.665 487.236C425.172 485.036 419.773 475.586 414.667 466.236C409.56 456.886 398.526 437.761 390.146 423.736C381.766 409.711 372.465 393.286 369.479 387.236C366.492 381.186 362.389 373.644 360.36 370.477C358.332 367.309 354.819 361.033 352.555 356.529C344.176 339.864 330.218 317.281 321.732 306.66C318.507 302.624 313.684 295.273 311.014 290.324C308.344 285.375 300.926 273.431 294.531 263.782L282.903 246.237L300.531 237.209C318.261 228.13 329.753 221.25 337.159 215.282C346.264 207.946 356.733 201.524 369.583 195.393C373.499 193.524 383.835 188.262 388.159 185.936C390.359 184.753 394.237 183.53 396.778 183.219C403.375 182.41 408.727 177.575 411.637 169.794C415.365 159.827 413.486 155.562 403.159 150.548C391.875 145.069 367.891 132.26 364.159 129.72C356.122 124.251 323.006 108.637 311.159 104.731C307.309 103.462 298.753 99.6751 292.145 96.3161C280.304 90.2961 271.241 86.9391 244.659 78.7281C237.234 76.4351 224.634 71.6201 216.659 68.0271C208.684 64.4351 197.659 59.8071 192.159 57.7421C178.544 52.6311 152.057 42.3781 147.159 40.3231C144.959 39.4001 138.731 36.1201 133.319 33.0331C122.031 26.5961 110.238 21.6781 93.2766 16.3371C86.7416 14.2791 75.8956 9.9091 69.1746 6.6271C55.9386 0.162102 51.0936 -1.18087 48.5616 0.915127ZM84.8236 46.5711C96.0076 51.9801 108.309 58.4481 112.159 60.9441C121.966 67.3031 131.103 71.7331 146.698 77.6921C154.102 80.5211 163.759 84.3351 168.159 86.1671C172.559 87.9991 177.959 90.0561 180.159 90.7371C182.359 91.4191 192.034 95.4741 201.659 99.7491C211.284 104.024 225.234 109.397 232.659 111.689C240.084 113.981 249.857 117.003 254.376 118.404C258.896 119.805 268.571 123.871 275.876 127.439C283.182 131.007 292.984 135.283 297.659 136.94C310.87 141.623 338.086 154.652 349.376 161.698L359.593 168.075L352.376 171.387C348.407 173.209 344.587 174.707 343.887 174.718C342.19 174.742 327.755 182.037 320.202 186.686C312.405 191.486 289.347 203.939 274.659 211.282C268.334 214.444 260.684 218.274 257.659 219.793C250.649 223.313 247.893 225.952 245.442 231.494C243.329 236.271 243.578 240.744 246.244 245.9C247.729 248.771 253.565 253.736 255.455 253.736C256.065 253.736 257.877 255.648 259.483 257.986C263.234 263.445 278.81 294.547 282.712 304.371C286.944 315.022 288.884 318.654 297.603 332.236C308.305 348.907 319.166 367.362 321.501 372.841C322.581 375.374 325.727 381.057 328.492 385.47C331.258 389.883 336.081 398.61 339.211 404.865C342.341 411.119 350.866 426.136 358.156 438.236C365.447 450.336 375.59 467.886 380.697 477.236C385.804 486.586 392.436 498.286 395.434 503.236C407.035 522.388 410.659 528.637 410.659 529.485C410.659 529.969 408.972 531.165 406.909 532.143C404.847 533.121 398.659 536.848 393.159 540.426C379.789 549.124 368.248 555.722 356.159 561.578C350.659 564.242 340.807 569.635 334.265 573.56L322.37 580.698L317.414 570.967C314.688 565.615 310.517 558.086 308.146 554.236C305.775 550.386 302.05 543.186 299.87 538.236C295.734 528.847 281.6 501.772 277.179 494.768C275.773 492.541 272.468 486.335 269.834 480.977C258.91 458.753 229.81 403.803 226.017 398.236C223.768 394.936 220.117 388.636 217.904 384.236C215.69 379.836 211.419 372.811 208.413 368.626C205.407 364.44 200.655 356.34 197.853 350.626C193.278 341.294 181.222 318.677 172.776 303.582C165.018 289.715 154.398 286.023 144.243 293.663C140.349 296.592 129.255 302.328 119.732 306.336C117.296 307.361 112.46 310.3 108.983 312.866C105.507 315.432 98.4986 319.661 93.4106 322.264C88.3216 324.866 81.6836 328.463 78.6586 330.257C75.6336 332.052 69.6646 334.963 65.3936 336.727C61.1236 338.491 53.5436 342.398 48.5506 345.408C43.5566 348.419 39.3616 350.736 39.2266 350.559C38.8086 350.006 40.5976 329.79 42.1316 317.736C42.9366 311.411 43.8726 303.086 44.2126 299.236C44.5526 295.386 46.6076 284.136 48.7806 274.236C55.7216 242.599 59.2576 215.417 63.1856 163.499C65.0626 138.686 65.6676 76.0071 64.2606 51.9861C63.7696 43.5981 63.6206 36.7361 63.9286 36.7361C64.2366 36.7361 73.6386 41.1621 84.8236 46.5711Z" fill="black"/>
</svg>
